<svg id="Layer_1" data-name="Layer 1" xmlns="http://www.w3.org/2000/svg" viewBox="0 0 414.38 239.74"><defs><style>.cls-1{fill:#4852a3;}.cls-2{fill:#231f20;}.cls-3{fill:#fbfbfb;}.cls-4{fill:#fff;stroke:#fff;stroke-miterlimit:10;stroke-width:4px;}</style></defs><rect class="cls-1" width="405.19" height="231.32" rx="18"/><rect class="cls-2" x="49.02" y="36" width="365.36" height="203.74" rx="16.47"/><path class="cls-3" d="M260.69,469.34h-13v-32.4q0-8-2.92-12.05t-8.76-4a12.23,12.23,0,0,0-9.66,4.43,16.63,16.63,0,0,0-3.81,11.23v32.8H209.42v-57.5h13.09v9.32h.22a21.8,21.8,0,0,1,7.86-8,21.43,21.43,0,0,1,10.84-2.67q9.44,0,14.35,6t4.91,17.69Z" transform="translate(-110.83 -288.91)"/><path class="cls-3" d="M276.52,469.34V384.21h13.09v85.13Z" transform="translate(-110.83 -288.91)"/><path class="cls-3" d="M338.57,422.79a16.61,16.61,0,0,0-2.05-.42,15.25,15.25,0,0,0-2.27-.14q-7,0-10.78,5.16t-3.76,13.48v28.47H306.62v-57.5h13.09V422.9h.22a18.63,18.63,0,0,1,5.95-9,14.65,14.65,0,0,1,9.27-3.06,20.22,20.22,0,0,1,2.72.16,17.18,17.18,0,0,1,2.33.51Z" transform="translate(-110.83 -288.91)"/><path class="cls-3" d="M400.4,469.34h-13v-32.4q0-8-2.92-12.05t-8.76-4a12.23,12.23,0,0,0-9.66,4.43,16.63,16.63,0,0,0-3.82,11.23v32.8H349.13v-57.5h13.08v9.32h.23a21.8,21.8,0,0,1,7.86-8,21.43,21.43,0,0,1,10.84-2.67q9.44,0,14.34,6t4.92,17.69Z" transform="translate(-110.83 -288.91)"/><path class="cls-3" d="M444.87,487.64H433.81a67.52,67.52,0,0,1-13.31-22.21,78.35,78.35,0,0,1-4.44-26.86,79.19,79.19,0,0,1,4.44-26.82,73.69,73.69,0,0,1,13.31-22.94h11.06a77.56,77.56,0,0,0-17.35,49.7,78.21,78.21,0,0,0,4.32,26.11A76.82,76.82,0,0,0,444.87,487.64Z" transform="translate(-110.83 -288.91)"/><path class="cls-3" d="M458.12,487.64h-11a75.71,75.71,0,0,0,17.4-49.13,78.61,78.61,0,0,0-4.38-26.31,80.43,80.43,0,0,0-13.08-23.39h11.12a73.26,73.26,0,0,1,13.36,22.94A79.19,79.19,0,0,1,476,438.57a77.79,77.79,0,0,1-4.47,26.81A68,68,0,0,1,458.12,487.64Z" transform="translate(-110.83 -288.91)"/><line class="cls-4" x1="25.28" y1="200.84" x2="25.28" y2="30.48"/></svg>